<svg xmlns="http://www.w3.org/2000/svg" width="13.198" height="14" viewBox="0 0 13.198 14">
  <path id="gear-solid" d="M27.824,4.556a.619.619,0,0,1-.175.673L26.464,6.307a5.213,5.213,0,0,1,0,1.389l1.184,1.078a.619.619,0,0,1,.175.673,6.779,6.779,0,0,1-.432.938l-.129.222a6.959,6.959,0,0,1-.6.853.619.619,0,0,1-.67.186l-1.523-.484a5.263,5.263,0,0,1-1.2.695l-.342,1.562a.618.618,0,0,1-.5.487,7.1,7.1,0,0,1-2.325,0,.618.618,0,0,1-.5-.487l-.342-1.562a5.263,5.263,0,0,1-1.2-.695l-1.521.487a.624.624,0,0,1-.67-.186,6.959,6.959,0,0,1-.6-.853l-.129-.222a6.779,6.779,0,0,1-.432-.938.619.619,0,0,1,.175-.673L16.058,7.7a5.366,5.366,0,0,1-.046-.7,5.292,5.292,0,0,1,.046-.695L14.874,5.229a.619.619,0,0,1-.175-.673,6.779,6.779,0,0,1,.432-.938l.129-.222a6.959,6.959,0,0,1,.6-.853.619.619,0,0,1,.67-.186l1.523.484a5.263,5.263,0,0,1,1.2-.695L19.6.585A.618.618,0,0,1,20.1.1,6.78,6.78,0,0,1,21.263,0a7.067,7.067,0,0,1,1.162.1.618.618,0,0,1,.5.487l.342,1.562a5.263,5.263,0,0,1,1.2.695l1.523-.484a.624.624,0,0,1,.67.186,6.959,6.959,0,0,1,.6.853l.129.222a6.779,6.779,0,0,1,.432.938ZM21.263,9.189A2.188,2.188,0,1,0,19.075,7,2.187,2.187,0,0,0,21.263,9.189Z" transform="translate(-14.662)" fill="#292b2c"/>
</svg>
