<?xml version="1.0" encoding="utf-8"?>
<!-- Generator: Adobe Illustrator 27.0.1, SVG Export Plug-In . SVG Version: 6.00 Build 0)  -->
<svg version="1.1" id="Layer_1" xmlns="http://www.w3.org/2000/svg" xmlns:xlink="http://www.w3.org/1999/xlink" x="0px" y="0px"
	 viewBox="0 0 1366 768" style="enable-background:new 0 0 1366 768;" xml:space="preserve">
<path fill="#000" d="M695.5,381.2c-0.2-1.1-0.8-2.1-1.8-2.8c-1-0.7-2.2-0.9-3.2-0.7c-0.2,0-0.4,0.1-0.6,0.2
	c-0.2,0.1-0.4,0.1-0.6,0.2c-0.4,0.2-0.8,0.5-1.1,0.8c-0.1,0.1-0.2,0.2-0.3,0.3c0,0.1-0.1,0.1-0.1,0.2c-0.1,0.1-0.1,0.2-0.2,0.3
	c-0.1,0.2-0.2,0.3-0.3,0.5c0,0,0,0.1,0,0.1c-0.4,1-0.4,2.2,0,3.2c0.1,0.2,0.2,0.4,0.3,0.6c0.1,0.1,0.1,0.2,0.2,0.3
	c0,0.1,0.1,0.1,0.1,0.2c0.1,0.1,0.2,0.2,0.2,0.4c0.5,0.6,0.8,1.2,1.2,1.8c0.1,0.1,0.1,0.2,0.2,0.3h3.7c0.3-0.8,0.8-1.5,1.3-2.2
	c0.1-0.2,0.3-0.4,0.4-0.5C695.4,383.5,695.7,382.4,695.5,381.2z M692.1,379.8c0,0.1-0.1,0.1-0.1,0.2c-0.1,0.1-0.2,0.2-0.3,0.2
	c-0.1,0.1-0.2,0.1-0.4,0.1c0,0-0.1,0-0.1,0c-0.5,0-0.9,0.2-1.2,0.5c-0.3,0.3-0.5,0.8-0.5,1.2v0c0,0.5-0.4,0.9-0.9,0.9c0,0,0,0,0,0
	c0,0-0.1,0-0.1,0c-0.2,0-0.3-0.1-0.5-0.2c-0.2-0.2-0.3-0.4-0.3-0.7c0-0.4,0.1-0.8,0.2-1.2c0.1-0.2,0.2-0.5,0.3-0.7
	c0.4-0.7,1-1.2,1.8-1.5c0.2-0.1,0.4-0.1,0.6-0.2c0.2,0,0.4-0.1,0.6-0.1h0.1c0.4,0,0.9,0.4,1,0.9
	C692.2,379.5,692.1,379.7,692.1,379.8z M692.9,389.1c0,0.9-0.8,1.6-1.7,1.6c-0.5,0-0.9-0.2-1.2-0.5c-0.1-0.1-0.2-0.2-0.3-0.3
	c-0.2-0.2-0.2-0.5-0.2-0.8H692.9z M688.3,387.2h-2.9c0-0.1-0.1-0.2-0.2-0.3c-0.3-0.7-0.7-1.3-1.2-1.9c-0.1-0.1-0.2-0.2-0.2-0.3
	c0-0.1-0.1-0.1-0.1-0.2c-0.1-0.1-0.1-0.2-0.2-0.3c-0.1-0.2-0.2-0.4-0.3-0.6c-0.4-1-0.4-2.2,0-3.2c0,0,0-0.1,0-0.1h0
	c0.1-0.2,0.2-0.3,0.2-0.5c0-0.1,0.1-0.2,0.2-0.3c0-0.1,0.1-0.1,0.1-0.2c0.1-0.1,0.2-0.2,0.3-0.3c0.3-0.3,0.7-0.6,1.1-0.8
	c0.2-0.1,0.4-0.2,0.6-0.2c0.2-0.1,0.4-0.1,0.6-0.2c0,0,0,0,0,0c0.5-0.1,1.1-0.1,1.6,0c-0.3,0.2-0.5,0.4-0.7,0.7c0,0,0,0,0,0h-0.1
	c-0.2,0-0.4,0-0.6,0.1c-0.2,0-0.4,0.1-0.6,0.2c-0.7,0.3-1.4,0.8-1.8,1.5c-0.1,0.2-0.2,0.4-0.3,0.7c-0.1,0.4-0.2,0.8-0.2,1.2
	c0,0.3,0.1,0.5,0.3,0.7c0.1,0.1,0.3,0.2,0.5,0.2c0,0,0.1,0,0.1,0c0,0,0,0,0,0c0.5,0,0.9-0.4,0.9-0.9v0c0-0.5,0.2-0.9,0.5-1.2
	c0,0,0,0,0,0c-0.3,1.3-0.1,2.7,0.6,3.9c0.1,0.1,0.2,0.2,0.2,0.4c0,0,0,0,0.1,0.1c0.1,0.1,0.2,0.3,0.3,0.4c0,0,0,0.1,0.1,0.1
	C687.7,386.1,688,386.6,688.3,387.2z M688.9,389.1c0,0.3-0.1,0.6-0.2,0.8c-0.3,0.5-0.8,0.8-1.4,0.8c-0.5,0-0.9-0.2-1.2-0.5
	c-0.1-0.1-0.2-0.2-0.3-0.3c-0.2-0.2-0.2-0.5-0.2-0.8H688.9z M684.4,387.2h-2.9c0-0.1-0.1-0.2-0.2-0.3c-0.3-0.7-0.7-1.3-1.2-1.9
	c-0.1-0.1-0.2-0.2-0.2-0.3c0-0.1-0.1-0.1-0.1-0.2c-0.1-0.1-0.1-0.2-0.2-0.3c-0.1-0.2-0.2-0.4-0.3-0.6c-0.4-1-0.4-2.2,0-3.2
	c0,0,0-0.1,0-0.1h0c0.1-0.2,0.2-0.3,0.2-0.5c0-0.1,0.1-0.2,0.2-0.3c0-0.1,0.1-0.1,0.1-0.2c0.1-0.1,0.2-0.2,0.3-0.3
	c0.3-0.3,0.7-0.6,1.1-0.8c0.2-0.1,0.4-0.2,0.6-0.2c0.2-0.1,0.4-0.1,0.6-0.2c0,0,0,0,0,0c0.5-0.1,1.1-0.1,1.6,0
	c-0.3,0.2-0.5,0.4-0.7,0.7c0,0,0,0,0,0h-0.1c-0.2,0-0.4,0-0.6,0.1c-0.2,0-0.4,0.1-0.6,0.2c-0.7,0.3-1.4,0.8-1.8,1.5
	c-0.1,0.2-0.2,0.4-0.3,0.7c-0.1,0.4-0.2,0.8-0.2,1.2c0,0.3,0.1,0.5,0.3,0.7c0.1,0.1,0.3,0.2,0.5,0.2c0,0,0.1,0,0.1,0c0,0,0,0,0,0
	c0.5,0,0.9-0.4,0.9-0.9v0c0-0.5,0.2-0.9,0.5-1.2c0,0,0,0,0,0c-0.3,1.3-0.1,2.7,0.6,3.9c0.1,0.1,0.2,0.2,0.2,0.4c0,0,0,0,0.1,0.1
	c0.1,0.1,0.2,0.3,0.3,0.4c0,0,0,0.1,0.1,0.1C683.8,386.1,684.1,386.6,684.4,387.2z M685,389.1c0,0.3-0.1,0.6-0.2,0.8
	c-0.3,0.5-0.8,0.8-1.4,0.8c-0.5,0-0.9-0.2-1.2-0.5c-0.1-0.1-0.2-0.2-0.3-0.3c-0.2-0.2-0.2-0.5-0.2-0.8H685z M680.4,387.2h-2.9
	c0-0.1-0.1-0.2-0.2-0.3c-0.3-0.7-0.7-1.3-1.2-1.9c-0.1-0.1-0.2-0.2-0.2-0.3c0-0.1-0.1-0.1-0.1-0.2c-0.1-0.1-0.1-0.2-0.2-0.3
	c-0.1-0.2-0.2-0.4-0.3-0.6c-0.4-1-0.4-2.2,0-3.2c0,0,0-0.1,0-0.1h0c0.1-0.2,0.2-0.3,0.2-0.5c0-0.1,0.1-0.2,0.2-0.3
	c0-0.1,0.1-0.1,0.1-0.2c0.1-0.1,0.2-0.2,0.3-0.3c0.3-0.3,0.7-0.6,1.1-0.8c0.2-0.1,0.4-0.2,0.6-0.2c0.2-0.1,0.4-0.1,0.6-0.2
	c0,0,0,0,0,0c0.5-0.1,1.1-0.1,1.6,0c-0.3,0.2-0.5,0.4-0.7,0.7c0,0,0,0,0,0h-0.1c-0.2,0-0.4,0-0.6,0.1c-0.2,0-0.4,0.1-0.6,0.2
	c-0.7,0.3-1.4,0.8-1.8,1.5c-0.1,0.2-0.2,0.4-0.3,0.7c-0.1,0.4-0.2,0.8-0.2,1.2c0,0.3,0.1,0.5,0.3,0.7c0.1,0.1,0.3,0.2,0.5,0.2
	c0,0,0.1,0,0.1,0c0,0,0,0,0,0c0.5,0,0.9-0.4,0.9-0.9v0c0-0.5,0.2-0.9,0.5-1.2c0,0,0,0,0,0c-0.3,1.3-0.1,2.7,0.6,3.9
	c0.1,0.1,0.2,0.2,0.2,0.4c0,0,0,0,0.1,0.1c0.1,0.1,0.2,0.3,0.3,0.4c0,0,0,0.1,0.1,0.1C679.8,386.1,680.1,386.6,680.4,387.2z
	 M681,389.1c0,0.3-0.1,0.6-0.2,0.8c-0.3,0.5-0.8,0.8-1.4,0.8c-0.5,0-0.9-0.2-1.2-0.5c-0.1-0.1-0.2-0.2-0.3-0.3
	c-0.2-0.2-0.2-0.5-0.2-0.8H681z M676.4,387.2h-2.9c0-0.1-0.1-0.2-0.2-0.3c-0.3-0.7-0.7-1.3-1.2-1.9c-0.1-0.1-0.2-0.2-0.2-0.3
	c0-0.1-0.1-0.1-0.1-0.2c-0.1-0.1-0.1-0.2-0.2-0.3c-0.1-0.2-0.2-0.4-0.3-0.6c-0.4-1-0.4-2.2,0-3.2c0,0,0-0.1,0-0.1h0
	c0.1-0.2,0.2-0.3,0.2-0.5c0-0.1,0.1-0.2,0.2-0.3c0-0.1,0.1-0.1,0.1-0.2c0.1-0.1,0.2-0.2,0.3-0.3c0.3-0.3,0.7-0.6,1.1-0.8
	c0.2-0.1,0.4-0.2,0.6-0.2c0.2-0.1,0.4-0.1,0.6-0.2c0,0,0,0,0,0c0.5-0.1,1.1-0.1,1.6,0c-0.3,0.2-0.5,0.4-0.7,0.7c0,0,0,0,0,0h-0.1
	c-0.2,0-0.4,0-0.6,0.1c-0.2,0-0.4,0.1-0.6,0.2c-0.7,0.3-1.4,0.8-1.8,1.5c-0.1,0.2-0.2,0.4-0.3,0.7c-0.1,0.4-0.2,0.8-0.2,1.2
	c0,0.3,0.1,0.5,0.3,0.7c0.1,0.1,0.3,0.2,0.5,0.2c0,0,0.1,0,0.1,0c0,0,0,0,0,0c0.5,0,0.9-0.4,0.9-0.9v0c0-0.5,0.2-0.9,0.5-1.2
	c0,0,0,0,0,0c-0.3,1.3-0.1,2.7,0.6,3.9c0.1,0.1,0.2,0.2,0.2,0.4c0,0,0,0,0.1,0.1c0.1,0.1,0.2,0.3,0.3,0.4c0,0,0,0.1,0.1,0.1
	C675.8,386.1,676.1,386.6,676.4,387.2z M677,389.1c0,0.3-0.1,0.6-0.2,0.8c-0.3,0.5-0.8,0.8-1.4,0.8c-0.5,0-0.9-0.2-1.2-0.5
	c-0.1-0.1-0.2-0.2-0.3-0.3c-0.2-0.2-0.2-0.5-0.2-0.8H677z"/>
</svg>
