<?xml version="1.0" encoding="utf-8"?>
<!-- Generator: Adobe Illustrator 27.0.1, SVG Export Plug-In . SVG Version: 6.00 Build 0)  -->
<svg version="1.1" id="Layer_1" xmlns="http://www.w3.org/2000/svg" xmlns:xlink="http://www.w3.org/1999/xlink" x="0px" y="0px"
	 viewBox="0 0 1366 768" style="enable-background:new 0 0 1366 768;" xml:space="preserve">
<path fill="#000" d="M710.4,381.5c-0.2-1.1-0.8-2.1-1.8-2.8c-1-0.7-2.2-0.9-3.2-0.7c-0.2,0-0.4,0.1-0.6,0.2
	c-0.2,0.1-0.4,0.1-0.6,0.2c-0.4,0.2-0.8,0.5-1.1,0.8c-0.1,0.1-0.2,0.2-0.3,0.3c0,0.1-0.1,0.1-0.1,0.2c-0.1,0.1-0.1,0.2-0.2,0.3
	c-0.1,0.2-0.2,0.3-0.3,0.5c0,0,0,0.1,0,0.1c-0.4,1-0.4,2.2,0,3.2c0.1,0.2,0.2,0.4,0.3,0.6c0.1,0.1,0.1,0.2,0.2,0.3
	c0,0.1,0.1,0.1,0.1,0.2c0.1,0.1,0.2,0.2,0.2,0.4c0.5,0.6,0.8,1.2,1.2,1.8c0.1,0.1,0.1,0.2,0.2,0.3h3.7c0.3-0.8,0.8-1.5,1.3-2.2
	c0.1-0.2,0.3-0.4,0.4-0.5C710.3,383.7,710.6,382.6,710.4,381.5z M707,380c0,0.1-0.1,0.1-0.1,0.2c-0.1,0.1-0.2,0.2-0.3,0.2
	c-0.1,0.1-0.2,0.1-0.4,0.1c0,0-0.1,0-0.1,0c-0.5,0-0.9,0.2-1.2,0.5c-0.3,0.3-0.5,0.8-0.5,1.2v0c0,0.5-0.4,0.9-0.9,0.9c0,0,0,0,0,0
	c0,0-0.1,0-0.1,0c-0.2,0-0.3-0.1-0.5-0.2c-0.2-0.2-0.3-0.4-0.3-0.7c0-0.4,0.1-0.8,0.2-1.2c0.1-0.2,0.2-0.5,0.3-0.7
	c0.4-0.7,1-1.2,1.8-1.5c0.2-0.1,0.4-0.1,0.6-0.2c0.2,0,0.4-0.1,0.6-0.1h0.1c0.4,0,0.9,0.4,1,0.9C707.1,379.7,707.1,379.9,707,380z
	 M707.8,389.3c0,0.9-0.8,1.6-1.7,1.6c-0.5,0-0.9-0.2-1.2-0.5c-0.1-0.1-0.2-0.2-0.3-0.3c-0.2-0.2-0.2-0.5-0.2-0.8H707.8z
	 M703.2,387.4h-2.9c0-0.1-0.1-0.2-0.2-0.3c-0.3-0.7-0.7-1.3-1.2-1.9c-0.1-0.1-0.2-0.2-0.2-0.3c0-0.1-0.1-0.1-0.1-0.2
	c-0.1-0.1-0.1-0.2-0.2-0.3c-0.1-0.2-0.2-0.4-0.3-0.6c-0.4-1-0.4-2.2,0-3.2c0,0,0-0.1,0-0.1h0c0.1-0.2,0.2-0.3,0.2-0.5
	c0-0.1,0.1-0.2,0.2-0.3c0-0.1,0.1-0.1,0.1-0.2c0.1-0.1,0.2-0.2,0.3-0.3c0.3-0.3,0.7-0.6,1.1-0.8c0.2-0.1,0.4-0.2,0.6-0.2
	c0.2-0.1,0.4-0.1,0.6-0.2c0,0,0,0,0,0c0.5-0.1,1.1-0.1,1.6,0c-0.3,0.2-0.5,0.4-0.7,0.7c0,0,0,0,0,0h-0.1c-0.2,0-0.4,0-0.6,0.1
	c-0.2,0-0.4,0.1-0.6,0.2c-0.7,0.3-1.4,0.8-1.8,1.5c-0.1,0.2-0.2,0.4-0.3,0.7c-0.1,0.4-0.2,0.8-0.2,1.2c0,0.3,0.1,0.5,0.3,0.7
	c0.1,0.1,0.3,0.2,0.5,0.2c0,0,0.1,0,0.1,0c0,0,0,0,0,0c0.5,0,0.9-0.4,0.9-0.9v0c0-0.5,0.2-0.9,0.5-1.2c0,0,0,0,0,0
	c-0.3,1.3-0.1,2.7,0.6,3.9c0.1,0.1,0.2,0.2,0.2,0.4c0,0,0,0,0.1,0.1c0.1,0.1,0.2,0.3,0.3,0.4c0,0,0,0.1,0.1,0.1
	C702.6,386.3,702.9,386.9,703.2,387.4z M703.8,389.3c0,0.3-0.1,0.6-0.2,0.8c-0.3,0.5-0.8,0.8-1.4,0.8c-0.5,0-0.9-0.2-1.2-0.5
	c-0.1-0.1-0.2-0.2-0.3-0.3c-0.2-0.2-0.2-0.5-0.2-0.8H703.8z M699.3,387.4h-2.9c0-0.1-0.1-0.2-0.2-0.3c-0.3-0.7-0.7-1.3-1.2-1.9
	c-0.1-0.1-0.2-0.2-0.2-0.3c0-0.1-0.1-0.1-0.1-0.2c-0.1-0.1-0.1-0.2-0.2-0.3c-0.1-0.2-0.2-0.4-0.3-0.6c-0.4-1-0.4-2.2,0-3.2
	c0,0,0-0.1,0-0.1h0c0.1-0.2,0.2-0.3,0.2-0.5c0-0.1,0.1-0.2,0.2-0.3c0-0.1,0.1-0.1,0.1-0.2c0.1-0.1,0.2-0.2,0.3-0.3
	c0.3-0.3,0.7-0.6,1.1-0.8c0.2-0.1,0.4-0.2,0.6-0.2c0.2-0.1,0.4-0.1,0.6-0.2c0,0,0,0,0,0c0.5-0.1,1.1-0.1,1.6,0
	c-0.3,0.2-0.5,0.4-0.7,0.7c0,0,0,0,0,0h-0.1c-0.2,0-0.4,0-0.6,0.1c-0.2,0-0.4,0.1-0.6,0.2c-0.7,0.3-1.4,0.8-1.8,1.5
	c-0.1,0.2-0.2,0.4-0.3,0.7c-0.1,0.4-0.2,0.8-0.2,1.2c0,0.3,0.1,0.5,0.3,0.7c0.1,0.1,0.3,0.2,0.5,0.2c0,0,0.1,0,0.1,0c0,0,0,0,0,0
	c0.5,0,0.9-0.4,0.9-0.9v0c0-0.5,0.2-0.9,0.5-1.2c0,0,0,0,0,0c-0.3,1.3-0.1,2.7,0.6,3.9c0.1,0.1,0.2,0.2,0.2,0.4c0,0,0,0,0.1,0.1
	c0.1,0.1,0.2,0.3,0.3,0.4c0,0,0,0.1,0.1,0.1C698.7,386.3,699,386.9,699.3,387.4z M699.9,389.3c0,0.3-0.1,0.6-0.2,0.8
	c-0.3,0.5-0.8,0.8-1.4,0.8c-0.5,0-0.9-0.2-1.2-0.5c-0.1-0.1-0.2-0.2-0.3-0.3c-0.2-0.2-0.2-0.5-0.2-0.8H699.9z M695.3,387.4h-2.9
	c0-0.1-0.1-0.2-0.2-0.3c-0.3-0.7-0.7-1.3-1.2-1.9c-0.1-0.1-0.2-0.2-0.2-0.3c0-0.1-0.1-0.1-0.1-0.2c-0.1-0.1-0.1-0.2-0.2-0.3
	c-0.1-0.2-0.2-0.4-0.3-0.6c-0.4-1-0.4-2.2,0-3.2c0,0,0-0.1,0-0.1h0c0.1-0.2,0.2-0.3,0.2-0.5c0-0.1,0.1-0.2,0.2-0.3
	c0-0.1,0.1-0.1,0.1-0.2c0.1-0.1,0.2-0.2,0.3-0.3c0.3-0.3,0.7-0.6,1.1-0.8c0.2-0.1,0.4-0.2,0.6-0.2c0.2-0.1,0.4-0.1,0.6-0.2
	c0,0,0,0,0,0c0.5-0.1,1.1-0.1,1.6,0c-0.3,0.2-0.5,0.4-0.7,0.7c0,0,0,0,0,0h-0.1c-0.2,0-0.4,0-0.6,0.1c-0.2,0-0.4,0.1-0.6,0.2
	c-0.7,0.3-1.4,0.8-1.8,1.5c-0.1,0.2-0.2,0.4-0.3,0.7c-0.1,0.4-0.2,0.8-0.2,1.2c0,0.3,0.1,0.5,0.3,0.7c0.1,0.1,0.3,0.2,0.5,0.2
	c0,0,0.1,0,0.1,0c0,0,0,0,0,0c0.5,0,0.9-0.4,0.9-0.9v0c0-0.5,0.2-0.9,0.5-1.2c0,0,0,0,0,0c-0.3,1.3-0.1,2.7,0.6,3.9
	c0.1,0.1,0.2,0.2,0.2,0.4c0,0,0,0,0.1,0.1c0.1,0.1,0.2,0.3,0.3,0.4c0,0,0,0.1,0.1,0.1C694.7,386.3,695,386.9,695.3,387.4z
	 M695.9,389.3c0,0.3-0.1,0.6-0.2,0.8c-0.3,0.5-0.8,0.8-1.4,0.8c-0.5,0-0.9-0.2-1.2-0.5c-0.1-0.1-0.2-0.2-0.3-0.3
	c-0.2-0.2-0.2-0.5-0.2-0.8H695.9z"/>
</svg>
