<?xml version="1.0" encoding="utf-8"?>
<!-- Generator: Adobe Illustrator 27.0.1, SVG Export Plug-In . SVG Version: 6.00 Build 0)  -->
<svg version="1.1" id="Layer_1" xmlns="http://www.w3.org/2000/svg" xmlns:xlink="http://www.w3.org/1999/xlink" x="0px" y="0px"
	 viewBox="0 0 1366 768" style="enable-background:new 0 0 1366 768;" xml:space="preserve">
<path fill="#000" d="M708.4,381.5c-0.2-1.1-0.8-2.1-1.8-2.8c-1-0.7-2.2-0.9-3.2-0.7c-0.2,0-0.4,0.1-0.6,0.2
	c-0.2,0.1-0.4,0.1-0.6,0.2c-0.4,0.2-0.8,0.5-1.1,0.8c-0.1,0.1-0.2,0.2-0.3,0.3c0,0.1-0.1,0.1-0.1,0.2c-0.1,0.1-0.1,0.2-0.2,0.3
	c-0.1,0.2-0.2,0.3-0.3,0.5c0,0,0,0.1,0,0.1c-0.4,1-0.4,2.2,0,3.2c0.1,0.2,0.2,0.4,0.3,0.6c0.1,0.1,0.1,0.2,0.2,0.3
	c0,0.1,0.1,0.1,0.1,0.2c0.1,0.1,0.2,0.2,0.2,0.4c0.5,0.6,0.8,1.2,1.2,1.8c0.1,0.1,0.1,0.2,0.2,0.3h3.7c0.3-0.8,0.8-1.5,1.3-2.2
	c0.1-0.2,0.3-0.4,0.4-0.5C708.3,383.7,708.6,382.6,708.4,381.5z M705,380c0,0.1-0.1,0.1-0.1,0.2c-0.1,0.1-0.2,0.2-0.3,0.2
	c-0.1,0.1-0.2,0.1-0.4,0.1c0,0-0.1,0-0.1,0c-0.5,0-0.9,0.2-1.2,0.5c-0.3,0.3-0.5,0.8-0.5,1.2v0c0,0.5-0.4,0.9-0.9,0.9c0,0,0,0,0,0
	c0,0-0.1,0-0.1,0c-0.2,0-0.3-0.1-0.5-0.2c-0.2-0.2-0.3-0.4-0.3-0.7c0-0.4,0.1-0.8,0.2-1.2c0.1-0.2,0.2-0.5,0.3-0.7
	c0.4-0.7,1-1.2,1.8-1.5c0.2-0.1,0.4-0.1,0.6-0.2c0.2,0,0.4-0.1,0.6-0.1h0.1c0.4,0,0.9,0.4,1,0.9C705.1,379.7,705.1,379.9,705,380z
	 M705.8,389.3c0,0.9-0.8,1.6-1.7,1.6c-0.5,0-0.9-0.2-1.2-0.5c-0.1-0.1-0.2-0.2-0.3-0.3c-0.2-0.2-0.2-0.5-0.2-0.8H705.8z
	 M701.2,387.4h-2.9c0-0.1-0.1-0.2-0.2-0.3c-0.3-0.7-0.7-1.3-1.2-1.9c-0.1-0.1-0.2-0.2-0.2-0.3c0-0.1-0.1-0.1-0.1-0.2
	c-0.1-0.1-0.1-0.2-0.2-0.3c-0.1-0.2-0.2-0.4-0.3-0.6c-0.4-1-0.4-2.2,0-3.2c0,0,0-0.1,0-0.1h0c0.1-0.2,0.2-0.3,0.2-0.5
	c0-0.1,0.1-0.2,0.2-0.3c0-0.1,0.1-0.1,0.1-0.2c0.1-0.1,0.2-0.2,0.3-0.3c0.3-0.3,0.7-0.6,1.1-0.8c0.2-0.1,0.4-0.2,0.6-0.2
	c0.2-0.1,0.4-0.1,0.6-0.2c0,0,0,0,0,0c0.5-0.1,1.1-0.1,1.6,0c-0.3,0.2-0.5,0.4-0.7,0.7c0,0,0,0,0,0h-0.1c-0.2,0-0.4,0-0.6,0.1
	c-0.2,0-0.4,0.1-0.6,0.2c-0.7,0.3-1.4,0.8-1.8,1.5c-0.1,0.2-0.2,0.4-0.3,0.7c-0.1,0.4-0.2,0.8-0.2,1.2c0,0.3,0.1,0.5,0.3,0.7
	c0.1,0.1,0.3,0.2,0.5,0.2c0,0,0.1,0,0.1,0c0,0,0,0,0,0c0.5,0,0.9-0.4,0.9-0.9v0c0-0.5,0.2-0.9,0.5-1.2c0,0,0,0,0,0
	c-0.3,1.3-0.1,2.7,0.6,3.9c0.1,0.1,0.2,0.2,0.2,0.4c0,0,0,0,0.1,0.1c0.1,0.1,0.2,0.3,0.3,0.4c0,0,0,0.1,0.1,0.1
	C700.6,386.3,700.9,386.9,701.2,387.4z M701.8,389.3c0,0.3-0.1,0.6-0.2,0.8c-0.3,0.5-0.8,0.8-1.4,0.8c-0.5,0-0.9-0.2-1.2-0.5
	c-0.1-0.1-0.2-0.2-0.3-0.3c-0.2-0.2-0.2-0.5-0.2-0.8H701.8z M697.3,387.4h-2.9c0-0.1-0.1-0.2-0.2-0.3c-0.3-0.7-0.7-1.3-1.2-1.9
	c-0.1-0.1-0.2-0.2-0.2-0.3c0-0.1-0.1-0.1-0.1-0.2c-0.1-0.1-0.1-0.2-0.2-0.3c-0.1-0.2-0.2-0.4-0.3-0.6c-0.4-1-0.4-2.2,0-3.2
	c0,0,0-0.1,0-0.1h0c0.1-0.2,0.2-0.3,0.2-0.5c0-0.1,0.1-0.2,0.2-0.3c0-0.1,0.1-0.1,0.1-0.2c0.1-0.1,0.2-0.2,0.3-0.3
	c0.3-0.3,0.7-0.6,1.1-0.8c0.2-0.1,0.4-0.2,0.6-0.2c0.2-0.1,0.4-0.1,0.6-0.2c0,0,0,0,0,0c0.5-0.1,1.1-0.1,1.6,0
	c-0.3,0.2-0.5,0.4-0.7,0.7c0,0,0,0,0,0h-0.1c-0.2,0-0.4,0-0.6,0.1c-0.2,0-0.4,0.1-0.6,0.2c-0.7,0.3-1.4,0.8-1.8,1.5
	c-0.1,0.2-0.2,0.4-0.3,0.7c-0.1,0.4-0.2,0.8-0.2,1.2c0,0.3,0.1,0.5,0.3,0.7c0.1,0.1,0.3,0.2,0.5,0.2c0,0,0.1,0,0.1,0c0,0,0,0,0,0
	c0.5,0,0.9-0.4,0.9-0.9v0c0-0.5,0.2-0.9,0.5-1.2c0,0,0,0,0,0c-0.3,1.3-0.1,2.7,0.6,3.9c0.1,0.1,0.2,0.2,0.2,0.4c0,0,0,0,0.1,0.1
	c0.1,0.1,0.2,0.3,0.3,0.4c0,0,0,0.1,0.1,0.1C696.7,386.3,697,386.9,697.3,387.4z M697.9,389.3c0,0.3-0.1,0.6-0.2,0.8
	c-0.3,0.5-0.8,0.8-1.4,0.8c-0.5,0-0.9-0.2-1.2-0.5c-0.1-0.1-0.2-0.2-0.3-0.3c-0.2-0.2-0.2-0.5-0.2-0.8H697.9z"/>
</svg>
