<svg xmlns="http://www.w3.org/2000/svg" width="15.999" height="14" viewBox="0 0 15.999 14">
  <path id="liked" d="M9.793,31.989a1.5,1.5,0,0,1,1.178,1.765l-.072.356a7.449,7.449,0,0,1-.9,2.35h4.5a1.5,1.5,0,0,1,.116,3,1.5,1.5,0,0,1-.831,2.475,1.5,1.5,0,0,1-.819,2.2A1.569,1.569,0,0,1,13,44.46a1.5,1.5,0,0,1-1.5,1.5H9.2a3.006,3.006,0,0,1-1.665-.5l-1.2-.8A3,3,0,0,1,5,42.157V38.683a3.01,3.01,0,0,1,1.125-2.344l.231-.184a4.489,4.489,0,0,0,1.6-2.631l.072-.356A1.5,1.5,0,0,1,9.793,31.989ZM1,36.961H3a1,1,0,0,1,1,1v7a1,1,0,0,1-1,1H1a1,1,0,0,1-1-1v-7A1,1,0,0,1,1,36.961Z" transform="translate(0 -31.96)" fill="#292b2c"/>
</svg>
