<svg xmlns="http://www.w3.org/2000/svg" width="16" height="13.999" viewBox="0 0 16 13.999">
  <path id="like" d="M3,36.991H1a1,1,0,0,0-1,.972v6.972a.977.977,0,0,0,1,.972H3a1,1,0,0,0,1-.972V37.991A1.017,1.017,0,0,0,3,36.991Zm13,1.122a2.1,2.1,0,0,0-2.093-2.091H10.787a6.058,6.058,0,0,0,.463-1.853A2.148,2.148,0,0,0,9.061,32.02c-1.457,0-1.855,1.014-2.175,1.828C5.9,36.364,5,35.923,5,36.769a.75.75,0,0,0,1.218.585c2.4-1.918,1.812-3.834,2.842-3.834a.657.657,0,0,1,.689.65,6.453,6.453,0,0,1-.8,2.237.748.748,0,0,0-.1.366.726.726,0,0,0,.75.722h4.3a.636.636,0,0,1,.594.618.591.591,0,0,1-.552.585.75.75,0,0,0-.7.748c0,.483.356.5.356.9,0,.793-1.095.386-1.095,1.317,0,.351.2.407.2.7,0,.708-.93.43-.93,1.27,0,.141.035.186.035.3a.593.593,0,0,1-.593.592H9.58a3.751,3.751,0,0,1-2.234-.744L6.2,42.916a.75.75,0,1,0-.9,1.2l1.146.86a5.261,5.261,0,0,0,3.136,1.045h1.642a2.1,2.1,0,0,0,2.087-1.944,2.075,2.075,0,0,0,.881-2,2.084,2.084,0,0,0,.856-2.216A2.126,2.126,0,0,0,16,38.113Z" transform="translate(0 -32.02)" fill="#292b2c"/>
</svg>
