<svg xmlns="http://www.w3.org/2000/svg" width="13.999" height="14" viewBox="0 0 13.999 14">
  <path id="music-solid" d="M13.646.12a.877.877,0,0,1,.353.7v9.187A2.436,2.436,0,0,1,11.374,12.2a2.436,2.436,0,0,1-2.625-2.187,2.436,2.436,0,0,1,2.625-2.187,3.048,3.048,0,0,1,.875.126V3.967l-7,2.1v5.692a2.436,2.436,0,0,1-2.625,2.187A2.436,2.436,0,0,1,0,11.759,2.436,2.436,0,0,1,2.625,9.571,3.048,3.048,0,0,1,3.5,9.7V3.447a.879.879,0,0,1,.623-.839L12.872-.017a.87.87,0,0,1,.774.137Z" transform="translate(0 0.054)" fill="#292b2c"/>
</svg>
