<svg xmlns="http://www.w3.org/2000/svg" width="14" height="14" viewBox="0 0 14 14">
  <path id="palette-solid" d="M14,7v.074A1.8,1.8,0,0,1,12.083,8.75H9.406a1.313,1.313,0,0,0-1.312,1.313,1.465,1.465,0,0,0,.027.271,4.254,4.254,0,0,0,.3.818A2.906,2.906,0,0,1,8.747,12.3a1.612,1.612,0,0,1-1.46,1.7C7.191,14,7.1,14,7,14a7,7,0,1,1,7-7ZM3.5,7.875a.875.875,0,1,0-.875.875A.874.874,0,0,0,3.5,7.875Zm0-2.625a.875.875,0,1,0-.875-.875A.874.874,0,0,0,3.5,5.25ZM7.875,2.625A.875.875,0,1,0,7,3.5.874.874,0,0,0,7.875,2.625ZM10.5,5.25a.875.875,0,1,0-.875-.875A.874.874,0,0,0,10.5,5.25Z" fill="#292b2c"/>
</svg>
