<svg xmlns="http://www.w3.org/2000/svg" width="8.755" height="14" viewBox="0 0 8.755 14">
  <path id="person-walking-solid" d="M6.927,1.313A1.313,1.313,0,1,1,5.615,0,1.313,1.313,0,0,1,6.927,1.313ZM3.386,5.45l-.079.033-.219.1a1.755,1.755,0,0,0-.949,1.045l-.071.213a.875.875,0,1,1-1.66-.555l.071-.213a3.507,3.507,0,0,1,1.9-2.092l.219-.1A4.468,4.468,0,0,1,4.4,3.5,3.017,3.017,0,0,1,7.19,5.354l.421,1.009.585.293A.874.874,0,0,1,7.414,8.22l-.733-.364a1.307,1.307,0,0,1-.623-.67L5.8,6.557,5.268,8.348,6.621,9.825a1.326,1.326,0,0,1,.306.569l.629,2.518a.875.875,0,0,1-1.7.424l-.6-2.409L3.323,8.819a1.748,1.748,0,0,1-.4-1.633L3.383,5.45ZM1.806,10.883l.684-1.706a2.57,2.57,0,0,0,.191.235l1.113,1.214-.4.99a1.312,1.312,0,0,1-.29.44L1.42,13.744A.876.876,0,0,1,.181,12.5Z" transform="translate(0.075)" fill="#292b2c"/>
</svg>
