<svg xmlns="http://www.w3.org/2000/svg" width="14" height="12.25" viewBox="0 0 14 12.25">
  <path id="right-from-bracket-solid" d="M4.375,33.75a.875.875,0,0,0,0-1.75H2.625A2.626,2.626,0,0,0,0,34.625v7A2.626,2.626,0,0,0,2.625,44.25h1.75a.875.875,0,0,0,0-1.75H2.625a.874.874,0,0,1-.875-.875v-7a.874.874,0,0,1,.875-.875Zm9.42,4.851a.654.654,0,0,0,0-.952L9.857,33.93a.656.656,0,0,0-1.107.476v1.969H5.25a.874.874,0,0,0-.875.875V39a.874.874,0,0,0,.875.875h3.5v1.969a.656.656,0,0,0,1.107.476Z" transform="translate(0 -32)" fill="#292b2c"/>
</svg>
