<svg xmlns="http://www.w3.org/2000/svg" width="14" height="9.8" viewBox="0 0 14 9.8">
  <path id="sleigh" d="M.7,32a.7.7,0,1,0,0,1.4v3.5A2.1,2.1,0,0,0,2.8,39v.7H4.2V39H8.4v.7H9.8V39a2.1,2.1,0,0,0,2.1-2.1V34.8a.7.7,0,0,0,0-1.4H10.5a.7.7,0,0,0-.7.7V35a1.2,1.2,0,0,1-1.2,1.2,4.787,4.787,0,0,1-4.06-2.251L4.449,33.8a3.833,3.833,0,0,0-2.9-1.783A.654.654,0,0,0,1.4,32H.7ZM14,39.7a.7.7,0,0,0-1.4,0v.175a.524.524,0,0,1-.525.525H1.4a.7.7,0,0,0,0,1.4H12.075A1.925,1.925,0,0,0,14,39.875Z" transform="translate(0 -32)" fill="#292b2c"/>
</svg>
